<?xml version="1.0" encoding="UTF-8" standalone="no"?>
<!-- Created with Inkscape (http://www.inkscape.org/) -->

<svg
   width="82.16713mm"
   height="36.934196mm"
   viewBox="0 0 82.16713 36.934196"
   version="1.1"
   id="svg1"
   xml:space="preserve"
   xmlns:inkscape="http://www.inkscape.org/namespaces/inkscape"
   xmlns:sodipodi="http://sodipodi.sourceforge.net/DTD/sodipodi-0.dtd"
   xmlns="http://www.w3.org/2000/svg"
   xmlns:svg="http://www.w3.org/2000/svg"><sodipodi:namedview
     id="namedview1"
     pagecolor="#ffffff"
     bordercolor="#666666"
     borderopacity="1.0"
     inkscape:showpageshadow="2"
     inkscape:pageopacity="0.0"
     inkscape:pagecheckerboard="0"
     inkscape:deskcolor="#d1d1d1"
     inkscape:document-units="mm" /><defs
     id="defs1" /><g
     inkscape:label="Layer 1"
     inkscape:groupmode="layer"
     id="layer1"
     transform="translate(-65.021059,-175.32847)"><g
       id="g11"><path
         style="fill:#4d4d4d"
         d="m 93.30846,187.76322 v -4.27809 l 6.270899,-4.07833 6.556641,-4.07834 6.55889,4.079 6.27285,4.07899 0.003,4.29948 0.029,4.23234 -1.22393,0.178 0.003,-4.1821 0.004,-4.20348 -5.81125,-3.7792 -5.83552,-3.54687 -6.212607,3.77795 -5.423958,3.54562 -0.0091,4.27088 -0.01329,4.21834 -1.201664,-0.26509 z"
         id="path11" /><path
         style="fill:#009545;fill-opacity:1"
         d="m 114.40025,188.64582 0.49795,-0.0689 -0.49795,-0.51913 0.009,-5.22624 2.71198,1.85066 v 7.8486 l -2.71897,0.7924 z"
         id="path10" /><path
         style="fill:#8bc740;fill-opacity:1"
         d="m 95.425126,192.52167 0.0048,-3.98844 0.0048,-3.98845 1.318163,-0.86193 1.318163,-0.86193 v 1.16026 l -5.94e-4,1.17575 -0.767064,0.0853 0.766403,1.02237 0.001,7.11846 z"
         id="path9" /><path
         style="fill:#009545;fill-opacity:1"
         d="m 110.63867,190.78233 0.3763,-0.46597 -0.3763,-0.006 -0.006,-9.86675 2.51974,1.61292 -0.0165,6.04015 -0.5126,0.43958 0.5126,0.0323 0.0165,5.2634 -2.52062,1.16377 z"
         id="path8" /><path
         style="fill:#8bc740;fill-opacity:1"
         d="m 100.25377,194.39812 -1.124477,-0.56488 3.5e-5,-7.56867 0.715414,-0.0657 -0.715414,-0.58647 -2e-5,-3.49864 2.645822,-1.7309 -0.007,7.55696 -0.77845,0.0576 0.7679,0.64834 0.009,6.33359 z"
         id="path7" /><path
         style="fill:#3ab34f;fill-opacity:1"
         d="m 106.71579,181.4733 0.51962,-0.25469 -0.51326,-0.51001 0.002,-2.60547 2.72391,1.57228 0.009,10.55791 -0.64913,0.23022 0.64913,0.35782 -0.009,4.91858 -2.71259,1.9019 c 0.007,-5.38953 -0.007,-10.77903 -0.0196,-16.16854 z"
         id="path6" /><path
         style="fill:#3ab34f;fill-opacity:1"
         d="m 102.83346,195.74004 0.0403,-7.13953 0.64214,-0.012 -0.64214,-0.4719 -0.0403,-4.22063 v -4.22062 l 2.49559,-1.56438 -0.0845,2.65133 -0.30169,0.40955 0.31608,0.33033 0.19843,16.12043 z"
         id="path5" /><path
         style="fill:#4d4d4d"
         d="m 120.87892,192.7883 c 0.96905,-0.13495 0.99018,-0.11796 1.91823,1.54155 0.51612,0.9229 0.93839,1.74795 0.93839,1.83344 0,0.0855 -1.45851,0.15593 -3.24114,0.15651 -4.02514,0.001 -7.48006,0.54363 -10.91406,1.71313 l -2.64584,0.90108 c 3.89295,-3.4551 8.86838,-5.29062 13.94442,-6.14571 z"
         id="path4" /><path
         style="fill:#4d4d4d"
         d="m 103.27045,198.2559 c -2.84271,-0.9566 -5.797371,-1.70002 -10.425011,-1.85858 -2.364714,-0.081 -4.29948,-0.20971 -4.29948,-0.28597 0,-0.0763 0.422941,-0.89494 0.939869,-1.81929 0.788753,-1.41043 1.033363,-1.66009 1.521355,-1.55282 0.319816,0.0703 1.31735,0.25334 2.21674,0.40675 6.901707,1.17723 12.144577,5.81593 12.002957,5.76827 z"
         id="path3" /><path
         style="fill:#4d4d4d"
         d="m 111.16784,198.5463 1.86541,-0.44348 c 2.25393,-0.53585 6.00354,-0.98522 8.24559,-0.98818 1.30125,-0.002 1.69353,0.0944 1.88011,0.46085 0.27334,0.53681 0.90261,3.01368 0.78694,3.0975 -4.14835,-1.32503 -8.44639,-1.8074 -12.77805,-2.12669 z"
         id="path2" /><path
         style="fill:#4d4d4d"
         d="m 88.429765,199.93398 c 0.09924,-0.46042 0.314811,-1.25385 0.479045,-1.76318 0.281398,-0.87267 0.373137,-0.93077 1.59175,-1.00817 1.785918,-0.11342 6.361012,0.37423 8.683367,0.92556 l 1.929743,0.45811 c -4.389829,0.15088 -8.67282,0.9276 -12.864342,2.22482 z"
         id="path1" /></g><text
       xml:space="preserve"
       style="font-size:7.09544px;line-height:1.25;font-family:'Javanese Text';-inkscape-font-specification:'Javanese Text';fill:#666666;stroke-width:0.665195"
       x="64.736961"
       y="210.35463"
       id="text1"
       inkscape:export-filename="Emergency Class Manager Logo.svg"
       inkscape:export-xdpi="192"
       inkscape:export-ydpi="192"><tspan
         sodipodi:role="line"
         id="tspan1"
         x="64.736961"
         y="210.35463"
         style="font-style:normal;font-variant:normal;font-weight:normal;font-stretch:normal;font-family:Courgette;-inkscape-font-specification:Courgette;fill:#666666;stroke-width:0.665195">Emergency Class Manager</tspan></text></g></svg>
